<svg aria-label="GitHub" role="img" viewBox="0 0 512 512" xmlns="http://www.w3.org/2000/svg">
  <defs></defs>
  <path style="stroke: rgb(0, 0, 0);" d="M 0.322 511.6 L 0.125 -0.226 L 512 0.304 L 511.6 512.284 L 346.843 511.659 C 347.243 507.255 344.897 497.98 332.632 498.942 C 325.24 498.842 317.872 496.705 318.504 482.809 L 319.598 433.333 C 321.808 415.413 320.413 386.86 302.549 368.996 C 353.138 363.329 380.637 345.202 389.116 333.934 C 400 324.219 415.965 294.604 418.171 263.351 C 422.693 235.836 412.728 192.505 393.074 173.949 C 397.673 166.797 401.513 135.264 389.83 107.719 C 373.336 101.841 328.769 124.647 319.083 133.406 C 282.809 123.804 241.861 118.024 191.717 132.427 C 186.736 127.817 144.983 103.384 121.727 107.271 C 111.142 127.736 113.779 161.224 118.348 173.622 C 90.78 205.542 90.895 248.523 94.26 265.072 C 96.439 293.04 110.487 327.042 133.044 343.146 C 143.714 353.372 181.209 367.406 208.757 369.33 C 199.544 374.192 192.966 402.564 193.042 404.131 C 180.836 410.722 148.844 415.521 131.69 397.707 C 131.69 398.367 120.584 385.296 120.584 384.904 C 105.628 363.799 99.848 360.112 80.417 355.65 C 76.629 355.012 62.002 356.68 70.101 365.511 C 73.16 368.816 86.974 378.321 87.994 380.001 C 97.877 388.828 111.613 420.985 113.19 422.174 C 115.154 427.836 133.747 440.637 144.695 443.017 C 154.568 447.091 188.62 445.302 192.252 442.574 L 193.053 485.373 C 194.4 493.998 185.099 499.397 180.925 498.527 C 166.368 497.547 164.546 508.332 164.7 512.126 L 0.322 511.6 Z"></path>
</svg>
